<svg xmlns="http://www.w3.org/2000/svg" width="600" height="400" viewBox="0 0 600 400"><rect width="100%" height="100%" fill="#DDDDDD"/><path fill="#999999" d="M264.845 200.005q0 15.02-4.96 27.83-4.96 12.8-14.03 22.16-9.07 9.35-21.83 14.6-12.76 5.24-28.35 5.24-15.5 0-28.26-5.24-12.75-5.25-21.87-14.6-9.12-9.36-14.13-22.16-5.01-12.81-5.01-27.83 0-15.03 5.01-27.83 5.01-12.81 14.13-22.16 9.12-9.36 21.87-14.6 12.76-5.25 28.26-5.25 10.39 0 19.56 2.41 9.17 2.41 16.82 6.8 7.66 4.4 13.75 10.68 6.1 6.29 10.35 14.04 4.25 7.75 6.47 16.82 2.22 9.07 2.22 19.09Zm-25.98 0q0-11.25-3.03-20.18-3.02-8.93-8.6-15.17-5.57-6.23-13.56-9.54-7.98-3.31-18-3.31t-18 3.31q-7.99 3.31-13.61 9.54-5.62 6.24-8.65 15.17-3.02 8.93-3.02 20.18 0 11.24 3.02 20.17 3.03 8.93 8.65 15.12 5.62 6.19 13.61 9.5 7.98 3.31 18 3.31t18-3.31q7.99-3.31 13.56-9.5 5.58-6.19 8.6-15.12 3.03-8.93 3.03-20.17Zm64.92-24.38 1.6 7.65q2.93-2.93 6.19-5.43 3.26-2.51 6.9-4.26 3.64-1.74 7.8-2.74 4.16-.99 9.07-.99 7.94 0 14.08 2.69 6.14 2.7 10.25 7.56 4.11 4.87 6.24 11.63 2.13 6.75 2.13 14.88v61.71h-23.34v-61.71q0-8.88-4.07-13.75-4.06-4.87-12.38-4.87-6.05 0-11.34 2.75-5.29 2.74-10.01 7.46v70.12h-23.35v-96.96h14.27q4.54 0 5.96 4.26Zm104.8 33.07h44.03q0-4.54-1.27-8.55-1.28-4.02-3.83-7.04-2.55-3.03-6.47-4.77-3.92-1.75-9.12-1.75-10.11 0-15.92 5.76-5.82 5.77-7.42 16.35Zm59.53 14.08h-60q.56 7.47 2.64 12.9 2.08 5.43 5.48 8.98 3.4 3.54 8.08 5.29t10.35 1.75q5.67 0 9.78-1.33 4.11-1.32 7.18-2.92 3.07-1.61 5.39-2.93 2.31-1.33 4.49-1.33 2.93 0 4.34 2.18l6.71 8.5q-3.87 4.54-8.69 7.61-4.82 3.07-10.06 4.91-5.25 1.85-10.68 2.6-5.44.76-10.54.76-10.11 0-18.81-3.36-8.69-3.35-15.12-9.92-6.42-6.57-10.11-16.25-3.68-9.69-3.68-22.45 0-9.92 3.21-18.66t9.21-15.22q6.01-6.47 14.65-10.25 8.65-3.78 19.52-3.78 9.16 0 16.91 2.93t13.33 8.55q5.57 5.63 8.74 13.8 3.16 8.17 3.16 18.66 0 5.3-1.13 7.14-1.13 1.84-4.35 1.84Z"/></svg>