<svg xmlns="http://www.w3.org/2000/svg" width="600" height="400" viewBox="0 0 600 400"><rect width="100%" height="100%" fill="#DDDDDD"/><path fill="#999999" d="M227.94 133.16v20.22h-39.89v112.09h-24.62V153.38h-39.89v-20.22h104.4Zm130.66 38.43h17.21l-29.83 93.88h-18.12q-3.11 0-4.3-4.03l-16.84-54.26q-.82-2.74-1.51-5.44-.68-2.7-1.14-5.44-.55 2.74-1.24 5.53-.68 2.79-1.51 5.54l-17.11 54.07q-1.09 4.03-4.85 4.03h-17.38l-29.74-93.88h18.03q2.47 0 4.21 1.19 1.73 1.19 2.28 3.02l13.45 50.14q1.01 4.12 1.79 8.05.78 3.94 1.33 7.87 1-3.93 2.15-7.87 1.14-3.93 2.42-8.05l15.56-50.32q.54-1.83 2.15-3.02 1.6-1.19 3.88-1.19h9.98q2.38 0 4.07 1.19 1.69 1.19 2.24 3.02l15.1 50.32q1.19 4.12 2.24 8.1 1.05 3.98 2.06 7.91 1.19-7.77 3.38-16.01l13.82-50.14q.64-1.83 2.29-3.02t3.93-1.19Zm71.56-1.46q10.43 0 18.98 3.38 8.56 3.39 14.64 9.61 6.09 6.22 9.38 15.19 3.3 8.97 3.3 20.04 0 11.16-3.3 20.13-3.29 8.96-9.38 15.28-6.08 6.31-14.64 9.7-8.55 3.38-18.98 3.38-10.53 0-19.13-3.38-8.6-3.39-14.68-9.7-6.09-6.32-9.43-15.28-3.34-8.97-3.34-20.13 0-11.07 3.34-20.04 3.34-8.97 9.43-15.19 6.08-6.22 14.68-9.61 8.6-3.38 19.13-3.38Zm0 79.33q11.71 0 17.34-7.87 5.62-7.87 5.62-23.06 0-15.19-5.62-23.15-5.63-7.96-17.34-7.96-11.9 0-17.62 8.01-5.72 8-5.72 23.1 0 15.1 5.72 23.01 5.72 7.92 17.62 7.92Z"/></svg>