<svg xmlns="http://www.w3.org/2000/svg" width="600" height="400" viewBox="0 0 600 400"><rect width="100%" height="100%" fill="#DDDDDD"/><path fill="#999999" d="M201.485 150.62v15.36h-30.31v85.14h-18.69v-85.14h-30.3v-15.36h79.3Zm27.66-2.78v39.62q4.17-3.89 9.17-6.33 5.01-2.43 11.75-2.43 5.84 0 10.35 1.98 4.52 1.98 7.54 5.56 3.03 3.58 4.59 8.55 1.56 4.97 1.56 10.95v45.38h-17.16v-45.38q0-6.54-2.99-10.12-2.99-3.58-9.11-3.58-4.44 0-8.34 2.02-3.89 2.02-7.36 5.49v51.57h-17.17V147.84h17.17Zm76.38 36.28 1.04 8.06q3.34-6.39 7.92-10.04 4.59-3.65 10.85-3.65 4.93 0 7.92 2.16l-1.11 12.85q-.35 1.26-1.01 1.78t-1.77.52q-1.05 0-3.1-.35t-3.99-.35q-2.85 0-5.08.84-2.22.83-3.99 2.39-1.77 1.57-3.13 3.79-1.35 2.23-2.54 5.08v43.92h-17.16v-71.31h10.07q2.65 0 3.69.94t1.39 3.37Zm50.25 23.15h32.38q0-3.34-.93-6.29-.94-2.96-2.82-5.18-1.88-2.23-4.76-3.51-2.88-1.29-6.71-1.29-7.43 0-11.71 4.24-4.27 4.24-5.45 12.03Zm43.78 10.35h-44.13q.42 5.49 1.95 9.49 1.52 3.99 4.03 6.6 2.5 2.61 5.94 3.89 3.44 1.29 7.61 1.29t7.19-.98q3.03-.97 5.28-2.15 2.26-1.18 3.97-2.15 1.7-.98 3.3-.98 2.15 0 3.19 1.6l4.94 6.26q-2.85 3.33-6.4 5.59-3.54 2.26-7.4 3.62-3.85 1.35-7.85 1.91-4 .55-7.75.55-7.44 0-13.83-2.46-6.39-2.47-11.12-7.3-4.73-4.83-7.44-11.96-2.71-7.12-2.71-16.5 0-7.3 2.37-13.73 2.36-6.43 6.77-11.19t10.77-7.54q6.36-2.78 14.36-2.78 6.74 0 12.44 2.16 5.7 2.15 9.8 6.29 4.1 4.13 6.42 10.14 2.33 6.01 2.33 13.73 0 3.89-.83 5.25-.83 1.35-3.2 1.35Zm30.44-10.35h32.39q0-3.34-.94-6.29-.94-2.96-2.81-5.18-1.88-2.23-4.76-3.51-2.89-1.29-6.71-1.29-7.44 0-11.71 4.24-4.28 4.24-5.46 12.03Zm43.79 10.35h-44.13q.41 5.49 1.94 9.49 1.53 3.99 4.03 6.6 2.5 2.61 5.94 3.89 3.45 1.29 7.62 1.29t7.19-.98q3.02-.97 5.28-2.15 2.26-1.18 3.96-2.15 1.7-.98 3.3-.98 2.16 0 3.2 1.6l4.93 6.26q-2.84 3.33-6.39 5.59-3.54 2.26-7.4 3.62-3.86 1.35-7.85 1.91-4 .55-7.75.55-7.44 0-13.83-2.46-6.4-2.47-11.12-7.3-4.73-4.83-7.44-11.96-2.71-7.12-2.71-16.5 0-7.3 2.36-13.73 2.36-6.43 6.78-11.19 4.41-4.76 10.77-7.54 6.36-2.78 14.35-2.78 6.74 0 12.44 2.16 5.7 2.15 9.8 6.29 4.1 4.13 6.43 10.14 2.33 6.01 2.33 13.73 0 3.89-.83 5.25-.84 1.35-3.2 1.35Z"/></svg>