<svg xmlns="http://www.w3.org/2000/svg" width="600" height="400" viewBox="0 0 600 400"><rect width="100%" height="100%" fill="#DDDDDD"/><path fill="#999999" d="M205.915 155.025h-55.86v37.23h47.16v18.71h-47.16v51.24h-23.49v-125.8h79.35v18.62Zm55.24 16.53q9.92 0 18.06 3.21 8.13 3.22 13.92 9.14 5.78 5.92 8.91 14.44 3.14 8.53 3.14 19.05 0 10.62-3.14 19.14-3.13 8.53-8.91 14.53-5.79 6.01-13.92 9.23-8.14 3.22-18.06 3.22-10 0-18.18-3.22t-13.96-9.23q-5.79-6-8.96-14.53-3.18-8.52-3.18-19.14 0-10.52 3.18-19.05 3.17-8.52 8.96-14.44 5.78-5.92 13.96-9.14 8.18-3.21 18.18-3.21Zm0 75.42q11.14 0 16.49-7.48 5.35-7.48 5.35-21.92 0-14.44-5.35-22.01-5.35-7.57-16.49-7.57-11.31 0-16.74 7.61-5.44 7.61-5.44 21.97 0 14.35 5.44 21.88 5.43 7.52 16.74 7.52Zm115.89-74.03h21.49v89.26h-13.14q-4.26 0-5.39-3.92l-1.48-7.13q-5.48 5.57-12.1 9.01-6.61 3.43-15.57 3.43-7.31 0-12.92-2.48t-9.44-7q-3.83-4.53-5.78-10.75-1.96-6.22-1.96-13.7v-56.72h21.49v56.72q0 8.18 3.78 12.66 3.79 4.48 11.36 4.48 5.56 0 10.44-2.48 4.87-2.48 9.22-6.83v-64.55Zm61.68 5.39 1.31 10.09q4.17-8 9.91-12.57 5.75-4.57 13.58-4.57 6.17 0 9.91 2.7l-1.39 16.1q-.43 1.56-1.26 2.22-.83.65-2.22.65-1.3 0-3.87-.44-2.57-.43-5-.43-3.57 0-6.35 1.04-2.79 1.05-5.01 3-2.21 1.96-3.91 4.74-1.7 2.79-3.18 6.36v54.98h-21.49v-89.26h12.62q3.31 0 4.61 1.17 1.31 1.18 1.74 4.22Z"/></svg>