<svg xmlns="http://www.w3.org/2000/svg" width="600" height="400" viewBox="0 0 600 400"><rect width="100%" height="100%" fill="#DDDDDD"/><path fill="#999999" d="M217.64 152.195H156v41.09h52.04v20.64H156v56.54h-25.92v-138.82h87.56v20.55Zm18.14 19.77h23.81v98.5h-23.81v-98.5Zm27.07-28.7q0 3.07-1.25 5.76-1.24 2.69-3.31 4.7-2.06 2.02-4.85 3.22-2.78 1.2-5.95 1.2-3.07 0-5.81-1.2-2.73-1.2-4.75-3.22-2.01-2.01-3.21-4.7-1.2-2.69-1.2-5.76 0-3.17 1.2-5.95 1.2-2.79 3.21-4.8 2.02-2.02 4.75-3.22 2.74-1.2 5.81-1.2 3.17 0 5.95 1.2 2.79 1.2 4.85 3.22 2.07 2.01 3.31 4.8 1.25 2.78 1.25 5.95Zm91.01 28.7h18.72l-39.07 98.5H312l-39.07-98.5h19.59q2.68 0 4.46 1.25 1.78 1.25 2.35 3.17l19.01 52.61q1.54 4.61 2.69 9.02 1.15 4.42 2.01 8.83.96-4.41 2.12-8.83 1.15-4.41 2.78-9.02l19.39-52.61q.67-1.92 2.4-3.17t4.13-1.25Zm50.02 37.92h44.73q0-4.6-1.29-8.68-1.3-4.08-3.89-7.16-2.59-3.07-6.58-4.84-3.98-1.78-9.26-1.78-10.27 0-16.18 5.86-5.9 5.85-7.53 16.6Zm60.48 14.31H403.4q.57 7.58 2.68 13.1 2.12 5.52 5.57 9.12 3.46 3.6 8.21 5.38 4.75 1.77 10.51 1.77t9.94-1.34q4.17-1.34 7.29-2.98 3.12-1.63 5.48-2.97 2.35-1.35 4.56-1.35 2.97 0 4.41 2.21l6.82 8.64q-3.94 4.61-8.83 7.73-4.9 3.12-10.23 4.99t-10.85 2.64q-5.52.77-10.7.77-10.27 0-19.1-3.41-8.84-3.41-15.36-10.08-6.53-6.67-10.28-16.51-3.74-9.84-3.74-22.8 0-10.08 3.26-18.96 3.27-8.88 9.36-15.46 6.1-6.57 14.88-10.41 8.79-3.84 19.83-3.84 9.31 0 17.18 2.97 7.87 2.98 13.54 8.69 5.66 5.71 8.88 14.02 3.21 8.3 3.21 18.96 0 5.37-1.15 7.25-1.15 1.87-4.41 1.87Z"/></svg>